# xmcd
#
# Track frame offsets:
#	150
#	28415
#	41447
#	55100
#	68520
#	85192
#	108120
#	122567
#	138317
#	155180
#
# Disc length: 2267 seconds
#
# Revision: 0
# Processed by: cddbd v1.5PL3 Copyright (c) Steve Scherf et al.
# Submitted via: dBpowerAMP V4.0
#
DISCID=7f08d90a
DTITLE=The Singing Cookes - Songs About Mama
DYEAR=1900
DGENRE=
TTITLE0=Heaven Will Never Welcome A Sweeter Mama
TTITLE1=Mama's Homecoming
TTITLE2=Songs That Mama Sang
TTITLE3=Mother's At Rest
TTITLE4=Mama Needs No Marker
TTITLE5=My Mama's Roses
TTITLE6=Footsteps Of Mama
TTITLE7=Mama's Simple Prayer
TTITLE8=Mama (Send Your Best Angel For Mama)
TTITLE9=Thank You Lord For Mama (A Rose Without A Thorn)
EXTD=Gospel
EXTT0=
EXTT1=
EXTT2=
EXTT3=
EXTT4=
EXTT5=
EXTT6=
EXTT7=
EXTT8=
EXTT9=
PLAYORDER=
